<svg width="77" height="97" viewBox="0 0 77 97" fill="none" xmlns="http://www.w3.org/2000/svg">
<path d="M1.46191 1V0.25C1.0477 0.25 0.711914 0.585786 0.711914 1L1.46191 1ZM75.4879 96V96.75C75.9021 96.75 76.2379 96.4142 76.2379 96H75.4879ZM1.46191 96H0.711914C0.711914 96.4142 1.0477 96.75 1.46191 96.75L1.46191 96ZM49.05 1L49.5799 0.469179C49.4393 0.328827 49.2487 0.25 49.05 0.25V1ZM75.4879 27.3889H76.2379C76.2379 27.1897 76.1587 26.9988 76.0177 26.8581L75.4879 27.3889ZM17.3246 74.1389C16.9104 74.1389 16.5746 74.4747 16.5746 74.8889C16.5746 75.3031 16.9104 75.6389 17.3246 75.6389V74.1389ZM59.6252 75.6389C60.0394 75.6389 60.3752 75.3031 60.3752 74.8889C60.3752 74.4747 60.0394 74.1389 59.6252 74.1389V75.6389ZM17.3246 53.0278C16.9104 53.0278 16.5746 53.3636 16.5746 53.7778C16.5746 54.192 16.9104 54.5278 17.3246 54.5278V53.0278ZM49.05 54.5278C49.4642 54.5278 49.8 54.192 49.8 53.7778C49.8 53.3636 49.4642 53.0278 49.05 53.0278V54.5278ZM75.4879 95.25H1.46191V96.75H75.4879V95.25ZM2.21191 96V1H0.711914V96H2.21191ZM1.46191 1.75H49.05V0.25H1.46191V1.75ZM74.7379 27.3889V96H76.2379V27.3889H74.7379ZM48.5202 1.53082L74.958 27.9197L76.0177 26.8581L49.5799 0.469179L48.5202 1.53082ZM43.0125 1V22.1111H44.5125V1H43.0125ZM54.3376 33.4167H75.4879V31.9167H54.3376V33.4167ZM43.0125 22.1111C43.0125 28.3563 48.0842 33.4167 54.3376 33.4167V31.9167C48.91 31.9167 44.5125 27.5253 44.5125 22.1111H43.0125ZM17.3246 75.6389H59.6252V74.1389H17.3246V75.6389ZM17.3246 54.5278H49.05V53.0278H17.3246V54.5278Z" fill="#1B2431"/>
</svg>
