<svg width="98" height="98" viewBox="0 0 98 98" fill="none" xmlns="http://www.w3.org/2000/svg">
<path d="M96.4756 46.2014L51.5618 88.5607C46.0595 93.7501 38.5968 96.6654 30.8154 96.6654C23.034 96.6654 15.5713 93.7501 10.069 88.5607C4.56673 83.3714 1.47559 76.3331 1.47559 68.9943C1.47559 61.6555 4.56673 54.6172 10.069 49.4279L54.9828 7.06852C58.651 3.60896 63.6262 1.66541 68.8138 1.66541C74.0014 1.66541 78.9765 3.60896 82.6447 7.06852C86.3129 10.5281 88.3736 15.2203 88.3736 20.1128C88.3736 25.0054 86.3129 29.6975 82.6447 33.1571L37.682 75.5164C35.8479 77.2462 33.3603 78.218 30.7665 78.218C28.1727 78.218 25.6852 77.2462 23.8511 75.5164C22.017 73.7867 20.9866 71.4406 20.9866 68.9943C20.9866 66.548 22.017 64.2019 23.8511 62.4722L65.3438 23.3854" stroke="#1B2431" stroke-width="1.5" stroke-linecap="round" stroke-linejoin="round"/>
</svg>
