<svg width="166" height="45" viewBox="0 0 166 45" fill="none" xmlns="http://www.w3.org/2000/svg">
<path d="M30.1768 18.87C32.1326 18.87 33.766 18.3367 35.12 17.2489C36.4525 16.161 37.2262 14.6465 37.4627 12.6841H33.8304C33.4866 14.6465 32.0466 15.7557 30.1768 15.7557C27.7051 15.7557 26.3296 13.9853 26.3296 10.935C26.3296 7.88471 27.7051 6.11427 30.1768 6.11427C31.9606 6.11427 33.2931 7.05282 33.7445 8.7806H37.4197C37.1403 6.92484 36.3236 5.49568 34.991 4.49314C33.6585 3.4906 32.0466 3 30.1768 3C27.8341 3 25.9857 3.70391 24.6102 5.13306C23.2347 6.56221 22.547 8.5033 22.547 10.935C22.547 13.3667 23.2562 15.2864 24.6532 16.7156C26.0502 18.1447 27.8771 18.87 30.1768 18.87Z" fill="#1B2431"/>
<path d="M53.393 3.34129H41.7012V18.5287H53.3715V15.3078H45.3334V12.3428H52.6622V9.31387H45.3334V6.56221H53.393V3.34129Z" fill="#1B2431"/>
<path d="M72.1373 18.5287L66.3774 3.34129H62.0574L56.4264 18.5287H60.1446L61.0258 15.8837H67.3875L68.2902 18.5287H72.1373ZM62.9171 10.2737C63.1965 9.48451 63.6049 8.20467 64.1852 6.43423C64.7654 8.226 65.1953 9.50584 65.4747 10.2737L66.3559 12.8761H62.0359L62.9171 10.2737Z" fill="#1B2431"/>
<path d="M85.6696 6.51955C85.6696 9.01524 85.6911 11.3616 85.7555 13.58C85.2182 12.5135 84.423 11.127 83.3699 9.39919L79.6302 3.34129H75.7186V18.5287H79.1789V15.3504C79.1789 12.8761 79.1574 10.5297 79.0929 8.33266C79.5872 9.29253 80.3825 10.6577 81.4786 12.4708L85.2182 18.5287H89.1298V3.34129H85.6696V6.51955Z" fill="#1B2431"/>
<path d="M111.994 10.4444C113.348 9.80447 114.036 8.73794 114.036 7.22346C114.036 5.00508 112.424 3.34129 108.899 3.34129H101.634V18.5287H109.114C112.811 18.5287 114.659 16.8436 114.659 14.1133C114.659 12.5561 113.692 11.063 111.994 10.4444ZM108.662 6.22092C109.78 6.22092 110.425 6.83951 110.425 7.79939C110.425 8.82326 109.78 9.46318 108.662 9.46318H105.267V6.22092H108.662ZM105.267 15.6491V12.1935H108.899C110.253 12.1935 110.919 12.7694 110.919 13.9213C110.919 15.0305 110.188 15.6491 108.899 15.6491H105.267Z" fill="#1B2431"/>
<path d="M122.391 3.34129H118.759V18.5287H129.397V15.3078H122.391V3.34129Z" fill="#1B2431"/>
<path d="M139.476 18.87C143.581 18.87 146.138 16.6943 146.138 12.7481V3.34129H142.506V12.7908C142.506 14.7318 141.388 15.7557 139.476 15.7557C137.584 15.7557 136.467 14.7318 136.467 12.7908V3.34129H132.834V12.7481C132.834 14.7105 133.436 16.225 134.661 17.2702C135.886 18.3367 137.477 18.87 139.476 18.87Z" fill="#1B2431"/>
<path d="M162.516 3.34129H150.824V18.5287H162.495V15.3078H154.456V12.3428H161.785V9.31387H154.456V6.56221H162.516V3.34129Z" fill="#1B2431"/>
<path d="M13.4274 35.9345C13.0835 37.1503 12.7396 38.4302 12.3957 39.774C12.0304 38.4088 11.6865 37.1503 11.3426 35.9985L9.32232 29.4713H3.88477V44.6587H7.34503V40.2006C7.34503 37.4916 7.30204 35.0386 7.23757 32.8842C7.47398 33.7374 7.79637 34.8893 8.24771 36.3184L10.8913 44.6587H13.8572L16.5008 36.3184C16.9091 35.0599 17.253 33.9081 17.5324 32.8629C17.4464 34.9319 17.4034 37.385 17.4034 40.2006V44.6587H20.8637V29.4713H15.4261L13.4274 35.9345Z" fill="#1B2431"/>
<path d="M41.7467 44.6587L35.9867 29.4713H31.6668L26.0358 44.6587H29.754L30.6351 42.0137H36.9969L37.8995 44.6587H41.7467ZM32.5265 36.4038C32.8059 35.6145 33.2142 34.3347 33.7945 32.5642C34.3748 34.356 34.8046 35.6359 35.084 36.4038L35.9652 39.0061H31.6453L32.5265 36.4038Z" fill="#1B2431"/>
<path d="M59.427 40.8832C59.341 39.0701 58.8896 38.0036 57.2562 37.4703C58.9111 36.809 59.7278 35.6145 59.7278 33.8654C59.7278 31.2417 57.858 29.4713 54.1828 29.4713H46.9399V44.6587H50.5721V39.0701H53.5381C55.021 39.0701 55.7303 39.5607 55.7948 41.2885L55.8592 42.9949C55.8807 43.6988 56.0097 44.2534 56.2246 44.6587H59.9643C59.7064 44.2534 59.5559 43.6988 59.5344 43.0163L59.427 40.8832ZM50.5721 32.3509H53.71C55.236 32.3509 55.9882 33.0122 55.9882 34.3347C55.9882 35.6359 55.1715 36.3611 53.7745 36.3611H50.5721V32.3509Z" fill="#1B2431"/>
<path d="M75.6484 29.4713L69.3082 36.0411V29.4713H65.676V44.6587H69.3082V40.1153L71.3715 38.0889L75.7774 44.6587H80.0759L73.9291 35.6785L80.0759 29.4713H75.6484Z" fill="#1B2431"/>
<path d="M96.9644 29.4713H85.2726V44.6587H96.943V41.4378H88.9048V38.4728H96.2337V35.4439H88.9048V32.6922H96.9644V29.4713Z" fill="#1B2431"/>
<path d="M101.952 29.4713V32.6922H106.638V44.6587H110.291V32.6922H114.998V29.4713H101.952Z" fill="#1B2431"/>
<path d="M124.173 44.6587V29.4713H120.541V44.6587H124.173Z" fill="#1B2431"/>
<path d="M140.644 32.6496C140.644 35.1452 140.665 37.4916 140.73 39.71C140.192 38.6435 139.397 37.257 138.344 35.5292L134.604 29.4713H130.693V44.6587H134.153V41.4804C134.153 39.0061 134.132 36.6597 134.067 34.4627C134.561 35.4225 135.357 36.7877 136.453 38.6008L140.192 44.6587H144.104V29.4713H140.644V32.6496Z" fill="#1B2431"/>
<path d="M158.191 39.0061H161.586C161.328 40.7339 159.824 41.8857 157.933 41.8857C155.332 41.8857 153.763 40.0726 153.763 37.065C153.763 34.0574 155.268 32.2443 157.761 32.2443C159.63 32.2443 160.899 33.1188 161.328 34.5907H165.047C164.81 32.9055 164.015 31.583 162.704 30.6018C161.393 29.6206 159.738 29.13 157.739 29.13C155.332 29.13 153.441 29.8339 152.065 31.2631C150.668 32.6922 149.98 34.6333 149.98 37.065C149.98 39.4754 150.647 41.3951 151.979 42.8243C153.312 44.2748 155.096 45 157.309 45C159.588 45 161.242 44.2108 162.274 42.6536L162.704 44.6587H165.24V36.1905H158.191V39.0061Z" fill="#1B2431"/>
<path d="M4.57238 6.35263C6.09728 4.35755 8.48284 3.0959 11.1023 3.42857C13.1362 3.78244 15.0215 6.22501 14.9741 8.58159C13.6886 6.10498 10.6387 5.57452 8.78263 7.09562C6.05836 9.32457 6.80133 15.2684 10.5162 15.7638C14.4788 16.5067 17.4332 11.7209 16.458 7.77584C15.5655 4.78286 14.8928 4.40313 13.6886 3.37902C18.3032 4.67591 20.175 9.8199 18.6891 14.0301C18.1938 15.7638 16.7598 17.636 14.4788 18.488C12.5097 19.1355 10.1352 19.1446 8.78262 18.7357C8.10637 18.5312 5.62464 17.5758 4.57239 15.7638C3.18716 13.7236 2.61135 9.13113 4.57238 6.35263Z" fill="url(#paint0_angular)"/>
<path d="M11.1178 8.1882C10.7968 8.08696 10.4578 8.06349 10.1215 8.11924C9.43322 8.26579 8.80665 8.70945 8.37206 9.35802C7.96217 9.8959 7.67703 10.5412 7.54528 11.2292C7.52685 10.4339 7.69719 9.63649 8.03805 8.92233C8.62593 7.65862 10.0219 6.84797 11.2602 6.84798C11.2602 6.84798 14.3425 6.63939 13.9572 8.44593C13.6732 9.68423 11.6417 8.35342 11.1178 8.1882Z" fill="url(#paint1_linear)"/>
<path d="M10.2776 8.6178C9.95229 8.58389 9.62457 8.59758 9.30202 8.65854C9.47984 8.50616 9.68709 8.4073 9.90533 8.37077C10.0547 8.32996 11.0615 8.05457 11.4925 8.63173C11.5238 8.6735 11.6931 8.90026 11.6263 9.06382C11.5913 9.12192 11.542 9.1663 11.485 9.19108C11.4279 9.21586 11.3658 9.21986 11.3069 9.20257C10.9191 9.04299 10.7663 8.63214 10.2776 8.6178Z" fill="url(#paint2_linear)"/>
<path d="M8.78399 9.17952C8.94669 9.0401 9.13631 8.94966 9.33599 8.91624C9.47272 8.87887 10.3939 8.6269 10.7883 9.15501C10.8168 9.19324 10.9718 9.40069 10.9107 9.55038C10.8787 9.60354 10.8336 9.64413 10.7814 9.66679C10.7292 9.68945 10.6723 9.6931 10.6184 9.67727C10.2636 9.53129 10.1237 9.15539 9.67659 9.14221C9.37897 9.11116 9.07911 9.1237 8.78399 9.17952Z" fill="url(#paint3_linear)"/>
<path d="M8.86604 9.38921C8.98786 9.3559 9.80898 9.13128 10.1605 9.60201C10.1859 9.63614 10.324 9.82107 10.2696 9.9544C10.2411 10.0018 10.2009 10.038 10.1543 10.0582C10.1078 10.0784 10.0572 10.0817 10.0091 10.0676C9.69285 9.93754 9.56821 9.60242 9.16967 9.59066C8.90438 9.56298 8.6371 9.57416 8.37404 9.62393C8.51904 9.49964 8.68805 9.419 8.86604 9.38921Z" fill="url(#paint4_linear)"/>
<defs>
<radialGradient id="paint0_angular" cx="0" cy="0" r="1" gradientUnits="userSpaceOnUse" gradientTransform="translate(11.2716 14.3801) rotate(-80.774) scale(12.7431 12.8128)">
<stop offset="0.131514" stop-color="#255D7D"/>
<stop offset="0.651042" stop-color="#1D5F85"/>
<stop offset="0.838542" stop-color="#3988B3"/>
<stop offset="0.965153" stop-color="#9ADBFF"/>
</radialGradient>
<linearGradient id="paint1_linear" x1="12.0216" y1="7.35808" x2="14.0601" y2="8.69479" gradientUnits="userSpaceOnUse">
<stop stop-color="#3987B3"/>
<stop offset="1" stop-color="#D3EEFE"/>
</linearGradient>
<linearGradient id="paint2_linear" x1="10.8252" y1="8.30938" x2="11.7904" y2="8.47987" gradientUnits="userSpaceOnUse">
<stop stop-color="#3987B3"/>
<stop offset="1" stop-color="#D3EEFE"/>
</linearGradient>
<linearGradient id="paint3_linear" x1="10.1777" y1="8.86005" x2="11.0608" y2="9.01604" gradientUnits="userSpaceOnUse">
<stop stop-color="#3987B3"/>
<stop offset="1" stop-color="#D3EEFE"/>
</linearGradient>
<linearGradient id="paint4_linear" x1="9.61622" y1="9.33917" x2="10.4034" y2="9.47821" gradientUnits="userSpaceOnUse">
<stop stop-color="#3987B3"/>
<stop offset="1" stop-color="#D3EEFE"/>
</linearGradient>
</defs>
</svg>
