<svg width="97" height="97" viewBox="0 0 97 97" fill="none" xmlns="http://www.w3.org/2000/svg">
<path d="M0.975248 45.8612C0.957086 52.8272 2.5846 59.6989 5.72524 65.9167C9.44906 73.3676 15.1738 79.6346 22.2581 84.0157C29.3425 88.3968 37.5067 90.719 45.8363 90.7222C52.8022 90.7404 59.674 89.1129 65.8918 85.9722L95.9751 96L85.9473 65.9167C89.088 59.6989 90.7155 52.8272 90.6973 45.8612C90.6941 37.5316 88.3719 29.3674 83.9908 22.283C79.6097 15.1987 73.3427 9.47396 65.8918 5.75014C59.674 2.60951 52.8022 0.981988 45.8363 1.00015H43.1974C32.1967 1.60705 21.8064 6.25027 14.0159 14.0408C6.22537 21.8313 1.58215 32.2216 0.975248 43.2223V45.8612Z" stroke="#1B2431" stroke-width="1.5" stroke-linecap="round" stroke-linejoin="round"/>
</svg>
