<svg width="97" height="98" viewBox="0 0 97 98" fill="none" xmlns="http://www.w3.org/2000/svg">
<path d="M0.974609 74.1471L0.444279 73.6167L0.224609 73.8364V74.1471H0.974609ZM73.6217 1.5L74.152 0.96967C73.8591 0.676777 73.3843 0.676777 73.0914 0.96967L73.6217 1.5ZM95.9746 23.8529L96.505 24.3833C96.6456 24.2426 96.7246 24.0519 96.7246 23.8529C96.7246 23.654 96.6456 23.4633 96.505 23.3226L95.9746 23.8529ZM23.3276 96.5V97.25H23.6382L23.8579 97.0303L23.3276 96.5ZM0.974609 96.5H0.224609C0.224609 96.9142 0.560396 97.25 0.974609 97.25L0.974609 96.5ZM1.50494 74.6774L74.152 2.03033L73.0914 0.96967L0.444279 73.6167L1.50494 74.6774ZM73.0914 2.03033L95.4443 24.3833L96.505 23.3226L74.152 0.96967L73.0914 2.03033ZM95.4443 23.3226L22.7972 95.9697L23.8579 97.0303L96.505 24.3833L95.4443 23.3226ZM23.3276 95.75H0.974609V97.25H23.3276V95.75ZM1.72461 96.5V74.1471H0.224609V96.5H1.72461ZM56.3266 18.795L78.6796 41.148L79.7403 40.0873L57.3873 17.7344L56.3266 18.795Z" fill="#1B2431"/>
</svg>
