<svg width="152" height="97" viewBox="0 0 152 97" fill="none" xmlns="http://www.w3.org/2000/svg">
<path d="M116.689 96V89.2143C116.689 74.2237 104.537 62.0714 89.5463 62.0714H62.4035C47.4129 62.0714 35.2606 74.2237 35.2606 89.2143V96M150.618 96V89.2143C150.618 74.2237 138.465 62.0714 123.475 62.0714H120.082M1.33203 96V89.2143C1.33203 74.2237 13.4843 62.0714 28.4749 62.0714H31.8677M109.903 41.7143C121.146 41.7143 130.261 32.6001 130.261 21.3571C130.261 10.1142 121.146 1 109.903 1M42.0463 41.7143C30.8034 41.7143 21.6892 32.6001 21.6892 21.3571C21.6892 10.1142 30.8034 1 42.0463 1M96.332 21.3571C96.332 32.6001 87.2178 41.7143 75.9749 41.7143C64.732 41.7143 55.6177 32.6001 55.6177 21.3571C55.6177 10.1142 64.732 1 75.9749 1C87.2178 1 96.332 10.1142 96.332 21.3571Z" stroke="#1B2431" stroke-width="1.5" stroke-linecap="round" stroke-linejoin="round"/>
</svg>
