<svg width="97" height="97" viewBox="0 0 97 97" fill="none" xmlns="http://www.w3.org/2000/svg">
<path d="M49.2256 78.1283C49.2256 77.7141 48.8898 77.3783 48.4756 77.3783C48.0614 77.3783 47.7256 77.7141 47.7256 78.1283H49.2256ZM47.7256 78.1877C47.7256 78.6019 48.0614 78.9377 48.4756 78.9377C48.8898 78.9377 49.2256 78.6019 49.2256 78.1877H47.7256ZM47.7256 60.375C47.7256 60.7892 48.0614 61.125 48.4756 61.125C48.8898 61.125 49.2256 60.7892 49.2256 60.375H47.7256ZM29.939 31.5718C29.8311 31.9717 30.0679 32.3833 30.4678 32.4912C30.8677 32.599 31.2794 32.3622 31.3872 31.9623L29.939 31.5718ZM0.975586 1V0.25C0.561372 0.25 0.225586 0.585786 0.225586 1L0.975586 1ZM95.9756 1H96.7256C96.7256 0.585786 96.3898 0.25 95.9756 0.25V1ZM95.9756 96V96.75C96.3898 96.75 96.7256 96.4142 96.7256 96H95.9756ZM0.975586 96H0.225586C0.225586 96.4142 0.561372 96.75 0.975586 96.75L0.975586 96ZM47.7256 78.1283V78.1877H49.2256V78.1283H47.7256ZM65.5381 36.0852C65.5381 41.8451 61.4629 44.7422 56.9593 47.8129C52.5799 50.7988 47.7256 53.9794 47.7256 60.375H49.2256C49.2256 54.8956 53.2775 52.1387 57.8043 49.0522C62.207 46.0504 67.0381 42.7401 67.0381 36.0852H65.5381ZM48.4756 19.5625C58.0739 19.5625 65.5381 26.9773 65.5381 36.0852H67.0381C67.0381 26.1142 58.8673 18.0625 48.4756 18.0625V19.5625ZM31.3872 31.9623C33.3011 24.8652 40.3548 19.5625 48.4756 19.5625V18.0625C39.7309 18.0625 32.0431 23.7692 29.939 31.5718L31.3872 31.9623ZM0.975586 1.75H95.9756V0.25H0.975586V1.75ZM95.2256 1V96H96.7256V1H95.2256ZM95.9756 95.25H0.975586V96.75H95.9756V95.25ZM1.72559 96V1H0.225586V96H1.72559Z" fill="#1B2431"/>
</svg>
