<svg width="98" height="98" viewBox="0 0 98 98" fill="none" xmlns="http://www.w3.org/2000/svg">
<path d="M25.25 46.3632H25.3027M46.361 46.3632H46.4138M67.4721 46.3632H67.5249M1.50015 46.3634C1.48199 53.3293 3.1095 60.2011 6.25014 66.4189C9.97396 73.8698 15.6987 80.1368 22.783 84.5179C29.8674 88.899 38.0316 91.2212 46.3612 91.2244C53.3272 91.2426 60.1989 89.6151 66.4167 86.4744L96.5 96.5022L86.4722 66.4189C89.6129 60.2011 91.2404 53.3293 91.2222 46.3634C91.219 38.0338 88.8968 29.8696 84.5157 22.7852C80.1346 15.7009 73.8676 9.97616 66.4167 6.25234C60.1989 3.1117 53.3272 1.48419 46.3612 1.50235H43.7223C32.7216 2.10925 22.3313 6.75247 14.5408 14.543C6.75027 22.3335 2.10705 32.7238 1.50015 43.7245V46.3634Z" stroke="#F2F2F2" stroke-width="1.5" stroke-linecap="round" stroke-linejoin="round"/>
</svg>
