<svg width="97" height="97" viewBox="0 0 97 97" fill="none" xmlns="http://www.w3.org/2000/svg">
<path d="M23.3285 51.2941L22.7982 50.7638C22.6575 50.9044 22.5785 51.0952 22.5785 51.2941H23.3285ZM73.6226 1L74.153 0.46967C73.8601 0.176777 73.3852 0.176777 73.0923 0.46967L73.6226 1ZM95.9756 23.3529L96.5059 23.8833C96.7988 23.5904 96.7988 23.1155 96.5059 22.8226L95.9756 23.3529ZM45.6815 73.6471V74.3971C45.8804 74.3971 46.0711 74.318 46.2118 74.1774L45.6815 73.6471ZM23.3285 73.6471H22.5785C22.5785 74.0613 22.9143 74.3971 23.3285 74.3971V73.6471ZM90.3874 96V96.75C90.5863 96.75 90.777 96.671 90.9177 96.5303C91.0583 96.3897 91.1374 96.1989 91.1374 96H90.3874ZM0.975586 96H0.225586C0.225586 96.4142 0.561372 96.75 0.975586 96.75L0.975586 96ZM0.975594 6.58823L0.975594 5.83823C0.56138 5.83823 0.225594 6.17401 0.225594 6.58823H0.975594ZM45.6815 7.33823C46.0957 7.33823 46.4315 7.00245 46.4315 6.58823C46.4315 6.17402 46.0957 5.83823 45.6815 5.83823V7.33823ZM91.1374 51.2941C91.1374 50.8799 90.8016 50.5441 90.3874 50.5441C89.9731 50.5441 89.6374 50.8799 89.6374 51.2941H91.1374ZM23.8589 51.8244L74.153 1.53033L73.0923 0.46967L22.7982 50.7638L23.8589 51.8244ZM73.0923 1.53033L95.4453 23.8833L96.5059 22.8226L74.153 0.46967L73.0923 1.53033ZM95.4453 22.8226L45.1511 73.1167L46.2118 74.1774L96.5059 23.8833L95.4453 22.8226ZM45.6815 72.8971H23.3285V74.3971H45.6815V72.8971ZM24.0785 73.6471V51.2941H22.5785V73.6471H24.0785ZM56.3276 18.295L78.6805 40.648L79.7412 39.5873L57.3883 17.2344L56.3276 18.295ZM90.3874 95.25L0.975586 95.25L0.975586 96.75L90.3874 96.75V95.25ZM1.72559 96L1.72559 6.58823H0.225594L0.225586 96H1.72559ZM0.975594 7.33823L45.6815 7.33823V5.83823L0.975594 5.83823L0.975594 7.33823ZM89.6374 51.2941V96H91.1374V51.2941H89.6374Z" fill="#1B2431"/>
</svg>
