<svg width="99" height="97" viewBox="0 0 99 97" fill="none" xmlns="http://www.w3.org/2000/svg">
<path d="M70.1411 48.5C70.1411 59.7429 60.8888 68.8571 49.4756 68.8571C38.0623 68.8571 28.81 59.7429 28.81 48.5C28.81 37.2571 38.0623 28.1429 49.4756 28.1429C60.8888 28.1429 70.1411 37.2571 70.1411 48.5ZM70.1411 48.5V55.2857C70.1411 62.781 76.3093 68.8571 83.9182 68.8571C88.8059 68.8571 93.0992 66.3498 95.5448 62.5697C96.9064 60.4652 97.6953 57.9662 97.6953 55.2857V48.5C97.6953 22.2665 76.1066 1 49.4756 1C22.8446 1 1.25586 22.2665 1.25586 48.5C1.25586 74.7335 22.8446 96 49.4756 96C59.7205 96 69.2192 92.8527 77.0297 87.486" stroke="#1B2431" stroke-width="1.5" stroke-linecap="round" stroke-linejoin="round"/>
</svg>
