<svg width="41" height="43" viewBox="0 0 41 43" fill="none" xmlns="http://www.w3.org/2000/svg">
<path d="M4.07196 17.9749V17.2249H3.32196V17.9749H4.07196ZM37.322 17.9749H38.072V17.2249H37.322V17.9749ZM37.322 42V42.75C37.7362 42.75 38.072 42.4142 38.072 42H37.322ZM4.07196 42H3.32196C3.32196 42.4142 3.65775 42.75 4.07196 42.75V42ZM1.69696 10.7674V10.0174C1.28275 10.0174 0.94696 10.3532 0.94696 10.7674H1.69696ZM39.697 10.7674H40.447C40.447 10.3532 40.1112 10.0174 39.697 10.0174V10.7674ZM39.697 17.9749V18.7249C40.1112 18.7249 40.447 18.3891 40.447 17.9749H39.697ZM1.69696 17.9749H0.94696C0.94696 18.3891 1.28275 18.7249 1.69696 18.7249L1.69696 17.9749ZM20.3785 10.4069L19.6535 10.2149L19.4625 10.9357L20.1822 11.1308L20.3785 10.4069ZM32.7193 3.19939L33.3707 2.82763L33.3707 2.82763L32.7193 3.19939ZM20.845 10.4069L21.0412 11.1308L21.7609 10.9357L21.57 10.2149L20.845 10.4069ZM8.50411 3.19939L7.85273 2.82763L7.85273 2.82763L8.50411 3.19939ZM4.07196 18.7249H37.322V17.2249H4.07196V18.7249ZM36.572 17.9749V42H38.072V17.9749H36.572ZM37.322 41.25H4.07196V42.75H37.322V41.25ZM4.82196 42V17.9749H3.32196V42H4.82196ZM1.69696 11.5174H39.697V10.0174H1.69696V11.5174ZM38.947 10.7674V17.9749H40.447V10.7674H38.947ZM39.697 17.2249H1.69696V18.7249H39.697V17.2249ZM2.44696 17.9749V10.7674H0.94696V17.9749H2.44696ZM21.1035 10.599C21.7105 8.30768 23.8064 5.0794 26.1684 3.20382C27.3502 2.26543 28.495 1.74884 29.4706 1.75C30.3708 1.75108 31.2822 2.19436 32.068 3.57116L33.3707 2.82763C32.3752 1.08343 31.0164 0.251845 29.4724 0.250003C28.0039 0.248251 26.5308 1.0007 25.2356 2.02913C22.6438 4.08719 20.3506 7.58367 19.6535 10.2149L21.1035 10.599ZM32.068 3.57116C32.8537 4.94782 32.781 5.97526 32.3266 6.77362C31.8372 7.6337 30.8199 8.37864 29.4278 8.9439C26.6423 10.0749 22.8345 10.2957 20.5747 9.68307L20.1822 11.1308C22.7891 11.8375 26.9331 11.5758 29.9921 10.3337C31.5222 9.71243 32.9003 8.79825 33.6303 7.51555C34.3954 6.17113 34.3664 4.57212 33.3707 2.82763L32.068 3.57116ZM21.57 10.2149C20.8729 7.58367 18.5796 4.08719 15.9878 2.02913C14.6927 1.0007 13.2196 0.248251 11.751 0.250003C10.2071 0.251845 8.84821 1.08343 7.85273 2.82763L9.15548 3.57116C9.94128 2.19436 10.8526 1.75108 11.7528 1.75C12.7284 1.74884 13.8733 2.26543 15.055 3.20382C17.417 5.0794 19.5129 8.30768 20.12 10.599L21.57 10.2149ZM7.85273 2.82763C6.85708 4.57212 6.828 6.17113 7.59314 7.51555C8.32314 8.79825 9.70128 9.71243 11.2314 10.3337C14.2904 11.5758 18.4344 11.8375 21.0412 11.1308L20.6487 9.68307C18.3889 10.2957 14.5811 10.0749 11.7957 8.9439C10.4035 8.37864 9.38629 7.6337 8.8968 6.77362C8.44244 5.97526 8.36977 4.94782 9.15548 3.57116L7.85273 2.82763Z" fill="#1B2431"/>
</svg>
