<svg width="98" height="97" viewBox="0 0 98 97" fill="none" xmlns="http://www.w3.org/2000/svg">
<path d="M66.474 73.0829L31.5255 55.6086M31.4758 41.4162L66.4573 23.9255M96.4749 80.1667C96.4749 88.9112 89.386 96 80.6415 96C71.897 96 64.8082 88.9112 64.8082 80.1667C64.8082 71.4222 71.897 64.3333 80.6415 64.3333C89.386 64.3333 96.4749 71.4222 96.4749 80.1667ZM96.4749 16.8333C96.4749 25.5778 89.386 32.6667 80.6415 32.6667C71.897 32.6667 64.8082 25.5778 64.8082 16.8333C64.8082 8.08882 71.897 1 80.6415 1C89.386 1 96.4749 8.08882 96.4749 16.8333ZM33.1415 48.5C33.1415 57.2445 26.0527 64.3333 17.3082 64.3333C8.56368 64.3333 1.47485 57.2445 1.47485 48.5C1.47485 39.7555 8.56368 32.6667 17.3082 32.6667C26.0527 32.6667 33.1415 39.7555 33.1415 48.5Z" stroke="#1B2431" stroke-width="1.5"/>
</svg>
