<svg width="26" height="25" viewBox="0 0 26 25" fill="none" xmlns="http://www.w3.org/2000/svg">
<path d="M16.1137 6.572C16.4066 6.2791 16.4066 5.80423 16.1137 5.51134C15.8208 5.21844 15.3459 5.21844 15.053 5.51134L16.1137 6.572ZM9.125 12.5L8.59467 11.9697C8.30178 12.2626 8.30178 12.7374 8.59467 13.0303L9.125 12.5ZM15.053 19.4887C15.3459 19.7816 15.8208 19.7816 16.1137 19.4887C16.4066 19.1958 16.4066 18.7209 16.1137 18.428L15.053 19.4887ZM15.053 5.51134L8.59467 11.9697L9.65533 13.0303L16.1137 6.572L15.053 5.51134ZM8.59467 13.0303L15.053 19.4887L16.1137 18.428L9.65533 11.9697L8.59467 13.0303ZM23.875 12.5C23.875 18.5061 19.0061 23.375 13 23.375V24.875C19.8345 24.875 25.375 19.3345 25.375 12.5H23.875ZM13 23.375C6.9939 23.375 2.125 18.5061 2.125 12.5H0.625C0.625 19.3345 6.16548 24.875 13 24.875V23.375ZM2.125 12.5C2.125 6.4939 6.9939 1.625 13 1.625V0.125C6.16548 0.125 0.625 5.66548 0.625 12.5H2.125ZM13 1.625C19.0061 1.625 23.875 6.4939 23.875 12.5H25.375C25.375 5.66548 19.8345 0.125 13 0.125V1.625Z" fill="#1B2431"/>
</svg>
