<svg width="77" height="97" viewBox="0 0 77 97" fill="none" xmlns="http://www.w3.org/2000/svg">
<path d="M1.53125 1V0.25C1.11704 0.25 0.78125 0.585786 0.78125 1L1.53125 1ZM75.4202 96V96.75C75.8344 96.75 76.1702 96.4142 76.1702 96H75.4202ZM1.53125 96H0.78125C0.78125 96.4142 1.11704 96.75 1.53125 96.75L1.53125 96ZM49.0313 1L49.5616 0.46967C49.4209 0.329018 49.2302 0.25 49.0313 0.25V1ZM75.4202 27.3889H76.1702C76.1702 27.19 76.0911 26.9992 75.9505 26.8586L75.4202 27.3889ZM17.3646 74.1389C16.9504 74.1389 16.6146 74.4747 16.6146 74.8889C16.6146 75.3031 16.9504 75.6389 17.3646 75.6389V74.1389ZM59.5868 75.6389C60.001 75.6389 60.3368 75.3031 60.3368 74.8889C60.3368 74.4747 60.001 74.1389 59.5868 74.1389V75.6389ZM17.3646 53.0278C16.9504 53.0278 16.6146 53.3636 16.6146 53.7778C16.6146 54.192 16.9504 54.5278 17.3646 54.5278V53.0278ZM49.0313 54.5278C49.4455 54.5278 49.7813 54.192 49.7813 53.7778C49.7813 53.3636 49.4455 53.0278 49.0313 53.0278V54.5278ZM75.4202 95.25H1.53125V96.75H75.4202V95.25ZM2.28125 96V1H0.78125V96H2.28125ZM1.53125 1.75H49.0313V0.25H1.53125V1.75ZM74.6702 27.3889V96H76.1702V27.3889H74.6702ZM48.5009 1.53033L74.8898 27.9192L75.9505 26.8586L49.5616 0.46967L48.5009 1.53033ZM43.0035 1V22.1111H44.5035V1H43.0035ZM54.309 33.4167H75.4202V31.9167H54.309V33.4167ZM43.0035 22.1111C43.0035 28.355 48.0652 33.4167 54.309 33.4167V31.9167C48.8936 31.9167 44.5035 27.5266 44.5035 22.1111H43.0035ZM17.3646 75.6389H59.5868V74.1389H17.3646V75.6389ZM17.3646 54.5278H49.0313V53.0278H17.3646V54.5278Z" fill="#1B2431"/>
</svg>
