<svg width="76" height="98" viewBox="0 0 76 98" fill="none" xmlns="http://www.w3.org/2000/svg">
<path d="M1.03027 1.5V0.75C0.61606 0.75 0.280273 1.08579 0.280273 1.5L1.03027 1.5ZM74.9192 96.5V97.25C75.3334 97.25 75.6692 96.9142 75.6692 96.5H74.9192ZM1.03027 96.5H0.280273C0.280273 96.9142 0.61606 97.25 1.03027 97.25L1.03027 96.5ZM48.5303 1.5L49.0606 0.96967C48.92 0.829018 48.7292 0.75 48.5303 0.75V1.5ZM74.9192 27.8889H75.6692C75.6692 27.69 75.5902 27.4992 75.4495 27.3586L74.9192 27.8889ZM16.8636 74.6389C16.4494 74.6389 16.1136 74.9747 16.1136 75.3889C16.1136 75.8031 16.4494 76.1389 16.8636 76.1389V74.6389ZM59.0858 76.1389C59.5001 76.1389 59.8358 75.8031 59.8358 75.3889C59.8358 74.9747 59.5001 74.6389 59.0858 74.6389V76.1389ZM16.8636 53.5278C16.4494 53.5278 16.1136 53.8636 16.1136 54.2778C16.1136 54.692 16.4494 55.0278 16.8636 55.0278V53.5278ZM48.5303 55.0278C48.9445 55.0278 49.2803 54.692 49.2803 54.2778C49.2803 53.8636 48.9445 53.5278 48.5303 53.5278V55.0278ZM74.9192 95.75H1.03027V97.25H74.9192V95.75ZM1.78027 96.5V1.5H0.280273V96.5H1.78027ZM1.03027 2.25H48.5303V0.75H1.03027V2.25ZM74.1692 27.8889V96.5H75.6692V27.8889H74.1692ZM48 2.03033L74.3888 28.4192L75.4495 27.3586L49.0606 0.96967L48 2.03033ZM42.5025 1.5V22.6111H44.0025V1.5H42.5025ZM53.8081 33.9167H74.9192V32.4167H53.8081V33.9167ZM42.5025 22.6111C42.5025 28.855 47.5642 33.9167 53.8081 33.9167V32.4167C48.3926 32.4167 44.0025 28.0266 44.0025 22.6111H42.5025ZM16.8636 76.1389H59.0858V74.6389H16.8636V76.1389ZM16.8636 55.0278H48.5303V53.5278H16.8636V55.0278Z" fill="#1B2431"/>
</svg>
