<svg width="88" height="97" viewBox="0 0 88 97" fill="none" xmlns="http://www.w3.org/2000/svg">
<path d="M83.7725 36.9459V21.5405C83.7725 15.8684 79.1744 11.2703 73.5023 11.2703H11.8806C6.20851 11.2703 1.61035 15.8684 1.61035 21.5405V83.1622C1.61035 88.8343 6.20851 93.4324 11.8806 93.4324H27.286M58.0968 1V21.5405M27.286 1V21.5405M1.61035 42.0811H27.286M63.232 63.6486V72.3142L67.8536 77.5135M86.3401 72.8919C86.3401 85.6541 75.9942 96 63.232 96C50.4697 96 40.1239 85.6541 40.1239 72.8919C40.1239 60.1296 50.4697 49.7838 63.232 49.7838C75.9942 49.7838 86.3401 60.1296 86.3401 72.8919Z" stroke="#1B2431" stroke-width="1.5" stroke-linecap="round" stroke-linejoin="round"/>
</svg>
