<svg width="70" height="69" viewBox="0 0 70 69" fill="none" xmlns="http://www.w3.org/2000/svg">
<path d="M1.33334 52.3333L0.803013 51.803C0.662361 51.9437 0.583344 52.1344 0.583344 52.3333H1.33334ZM52.7917 0.875L53.322 0.34467C53.0291 0.0517767 52.5542 0.0517767 52.2613 0.34467L52.7917 0.875ZM68.625 16.7083L69.1553 17.2387C69.4482 16.9458 69.4482 16.4709 69.1553 16.178L68.625 16.7083ZM17.1667 68.1667V68.9167C17.3656 68.9167 17.5564 68.8376 17.697 68.697L17.1667 68.1667ZM1.33334 68.1667H0.583344C0.583344 68.5809 0.91913 68.9167 1.33334 68.9167L1.33334 68.1667ZM33 67.4167C32.5858 67.4167 32.25 67.7524 32.25 68.1667C32.25 68.5809 32.5858 68.9167 33 68.9167V67.4167ZM66.6458 68.9167C67.0601 68.9167 67.3958 68.5809 67.3958 68.1667C67.3958 67.7524 67.0601 67.4167 66.6458 67.4167V68.9167ZM1.86367 52.8637L53.322 1.40533L52.2613 0.34467L0.803013 51.803L1.86367 52.8637ZM52.2613 1.40533L68.0947 17.2387L69.1553 16.178L53.322 0.34467L52.2613 1.40533ZM68.0947 16.178L16.6363 67.6363L17.697 68.697L69.1553 17.2387L68.0947 16.178ZM17.1667 67.4167H1.33334V68.9167H17.1667V67.4167ZM2.08334 68.1667V52.3333H0.583344V68.1667H2.08334ZM40.3863 13.2803L56.2197 29.1137L57.2803 28.053L41.447 12.2197L40.3863 13.2803ZM33 68.9167H66.6458V67.4167H33V68.9167Z" fill="#F2F2F2"/>
</svg>
