<svg width="97" height="98" viewBox="0 0 97 98" fill="none" xmlns="http://www.w3.org/2000/svg">
<path d="M23.3285 51.9595L22.7982 51.4292C22.6575 51.5698 22.5785 51.7606 22.5785 51.9595H23.3285ZM73.6226 1.66541L74.153 1.13508C73.8601 0.842182 73.3852 0.842182 73.0923 1.13508L73.6226 1.66541ZM95.9756 24.0183L96.5059 24.5487C96.7988 24.2558 96.7988 23.7809 96.5059 23.488L95.9756 24.0183ZM45.6815 74.3125V75.0625C45.8804 75.0625 46.0711 74.9834 46.2118 74.8428L45.6815 74.3125ZM23.3285 74.3125H22.5785C22.5785 74.7267 22.9143 75.0625 23.3285 75.0625V74.3125ZM90.3874 96.6654V97.4154C90.5863 97.4154 90.777 97.3364 90.9177 97.1957C91.0583 97.0551 91.1374 96.8643 91.1374 96.6654H90.3874ZM0.975586 96.6654H0.225586C0.225586 97.0796 0.561372 97.4154 0.975586 97.4154L0.975586 96.6654ZM0.975594 7.25363L0.975594 6.50363C0.56138 6.50363 0.225594 6.83942 0.225594 7.25363H0.975594ZM45.6815 8.00364C46.0957 8.00364 46.4315 7.66785 46.4315 7.25364C46.4315 6.83942 46.0957 6.50364 45.6815 6.50364V8.00364ZM91.1374 51.9595C91.1374 51.5453 90.8016 51.2095 90.3874 51.2095C89.9731 51.2095 89.6374 51.5453 89.6374 51.9595H91.1374ZM23.8589 52.4899L74.153 2.19574L73.0923 1.13508L22.7982 51.4292L23.8589 52.4899ZM73.0923 2.19574L95.4453 24.5487L96.5059 23.488L74.153 1.13508L73.0923 2.19574ZM95.4453 23.488L45.1511 73.7821L46.2118 74.8428L96.5059 24.5487L95.4453 23.488ZM45.6815 73.5625H23.3285V75.0625H45.6815V73.5625ZM24.0785 74.3125V51.9595H22.5785V74.3125H24.0785ZM56.3276 18.9604L78.6805 41.3134L79.7412 40.2527L57.3883 17.8998L56.3276 18.9604ZM90.3874 95.9154L0.975586 95.9154L0.975586 97.4154L90.3874 97.4154V95.9154ZM1.72559 96.6654L1.72559 7.25363H0.225594L0.225586 96.6654H1.72559ZM0.975594 8.00363L45.6815 8.00364V6.50364L0.975594 6.50363L0.975594 8.00363ZM89.6374 51.9595V96.6654H91.1374V51.9595H89.6374Z" fill="#1B2431"/>
</svg>
