<svg width="26" height="25" viewBox="0 0 26 25" fill="none" xmlns="http://www.w3.org/2000/svg">
<path d="M9.88634 18.428C9.59344 18.7209 9.59344 19.1958 9.88634 19.4887C10.1792 19.7816 10.6541 19.7816 10.947 19.4887L9.88634 18.428ZM16.875 12.5L17.4053 13.0303C17.6982 12.7374 17.6982 12.2626 17.4053 11.9697L16.875 12.5ZM10.947 5.51134C10.6541 5.21844 10.1792 5.21844 9.88634 5.51134C9.59344 5.80423 9.59344 6.2791 9.88634 6.572L10.947 5.51134ZM10.947 19.4887L17.4053 13.0303L16.3447 11.9697L9.88634 18.428L10.947 19.4887ZM17.4053 11.9697L10.947 5.51134L9.88634 6.572L16.3447 13.0303L17.4053 11.9697ZM23.875 12.5C23.875 18.5061 19.0061 23.375 13 23.375V24.875C19.8345 24.875 25.375 19.3345 25.375 12.5H23.875ZM13 23.375C6.9939 23.375 2.125 18.5061 2.125 12.5H0.625C0.625 19.3345 6.16548 24.875 13 24.875V23.375ZM2.125 12.5C2.125 6.4939 6.9939 1.625 13 1.625V0.125C6.16548 0.125 0.625 5.66548 0.625 12.5H2.125ZM13 1.625C19.0061 1.625 23.875 6.4939 23.875 12.5H25.375C25.375 5.66548 19.8345 0.125 13 0.125V1.625Z" fill="#1B2431"/>
</svg>
