<svg width="98" height="97" viewBox="0 0 98 97" fill="none" xmlns="http://www.w3.org/2000/svg">
<path d="M96.6689 96.5343C96.964 96.825 97.4389 96.8214 97.7296 96.5263C98.0202 96.2312 98.0167 95.7564 97.7216 95.4657L96.6689 96.5343ZM85.0994 42.9118C85.0994 65.6342 66.3971 84.0735 43.3027 84.0735V85.5735C67.2041 85.5735 86.5994 66.4838 86.5994 42.9118H85.0994ZM43.3027 84.0735C20.2082 84.0735 1.50586 65.6342 1.50586 42.9118H0.00585938C0.00585938 66.4838 19.4012 85.5735 43.3027 85.5735V84.0735ZM1.50586 42.9118C1.50586 20.1893 20.2082 1.75 43.3027 1.75V0.25C19.4012 0.25 0.00585938 19.3397 0.00585938 42.9118H1.50586ZM43.3027 1.75C66.3971 1.75 85.0994 20.1893 85.0994 42.9118H86.5994C86.5994 19.3397 67.2041 0.25 43.3027 0.25V1.75ZM97.7216 95.4657L73.9659 72.0645L72.9132 73.1331L96.6689 96.5343L97.7216 95.4657Z" fill="#1B2431"/>
</svg>
