<svg width="118" height="98" viewBox="0 0 118 98" fill="none" xmlns="http://www.w3.org/2000/svg">
<path d="M117.031 96.6654V86.1098C117.031 74.4505 107.579 64.9987 95.9199 64.9987H93.281M74.8088 43.8876C86.4682 43.8876 95.9199 34.4359 95.9199 22.7765C95.9199 11.1172 86.4682 1.66541 74.8088 1.66541M85.3644 96.6654V86.1098C85.3644 74.4505 75.9126 64.9987 64.2533 64.9987H22.031C10.3717 64.9987 0.919922 74.4505 0.919922 86.1098V96.6654M64.2533 22.7765C64.2533 34.4359 54.8015 43.8876 43.1421 43.8876C31.4828 43.8876 22.031 34.4359 22.031 22.7765C22.031 11.1172 31.4828 1.66541 43.1421 1.66541C54.8015 1.66541 64.2533 11.1172 64.2533 22.7765Z" stroke="#1B2431" stroke-width="1.5" stroke-linecap="round" stroke-linejoin="round"/>
</svg>
