<svg width="98" height="97" viewBox="0 0 98 97" fill="none" xmlns="http://www.w3.org/2000/svg">
<path opacity="0.95" d="M49.7256 78.1283C49.7256 77.7141 49.3898 77.3783 48.9756 77.3783C48.5614 77.3783 48.2256 77.7141 48.2256 78.1283H49.7256ZM48.2256 78.1877C48.2256 78.6019 48.5614 78.9377 48.9756 78.9377C49.3898 78.9377 49.7256 78.6019 49.7256 78.1877H48.2256ZM48.2256 60.375C48.2256 60.7892 48.5614 61.125 48.9756 61.125C49.3898 61.125 49.7256 60.7892 49.7256 60.375H48.2256ZM30.439 31.5718C30.3311 31.9717 30.5679 32.3833 30.9678 32.4912C31.3677 32.599 31.7794 32.3622 31.8872 31.9623L30.439 31.5718ZM1.47559 1V0.25C1.06137 0.25 0.725586 0.585786 0.725586 1L1.47559 1ZM96.4756 1H97.2256C97.2256 0.585786 96.8898 0.25 96.4756 0.25V1ZM96.4756 96V96.75C96.8898 96.75 97.2256 96.4142 97.2256 96H96.4756ZM1.47559 96H0.725586C0.725586 96.4142 1.06137 96.75 1.47559 96.75L1.47559 96ZM48.2256 78.1283V78.1877H49.7256V78.1283H48.2256ZM66.0381 36.0852C66.0381 41.8451 61.9629 44.7422 57.4593 47.8129C53.0799 50.7988 48.2256 53.9794 48.2256 60.375H49.7256C49.7256 54.8956 53.7775 52.1387 58.3043 49.0522C62.707 46.0504 67.5381 42.7401 67.5381 36.0852H66.0381ZM48.9756 19.5625C58.5739 19.5625 66.0381 26.9773 66.0381 36.0852H67.5381C67.5381 26.1142 59.3673 18.0625 48.9756 18.0625V19.5625ZM31.8872 31.9623C33.8011 24.8652 40.8548 19.5625 48.9756 19.5625V18.0625C40.2309 18.0625 32.5431 23.7692 30.439 31.5718L31.8872 31.9623ZM1.47559 1.75H96.4756V0.25H1.47559V1.75ZM95.7256 1V96H97.2256V1H95.7256ZM96.4756 95.25H1.47559V96.75H96.4756V95.25ZM2.22559 96V1H0.725586V96H2.22559Z" fill="#1B2431"/>
</svg>
