<svg width="98" height="97" viewBox="0 0 98 97" fill="none" xmlns="http://www.w3.org/2000/svg">
<path d="M38.4193 6.27778C38.4193 3.36294 40.7822 1 43.6971 1H54.2526C57.1675 1 59.5304 3.36294 59.5304 6.27778V9.27971C59.5304 11.5375 61.0457 13.4991 63.131 14.3648C65.217 15.2309 67.6459 14.9008 69.243 13.3037L71.3664 11.1804C73.4275 9.11925 76.7692 9.11925 78.8303 11.1804L86.2942 18.6443C88.3553 20.7054 88.3553 24.0471 86.2942 26.1082L84.1711 28.2312C82.5739 29.8285 82.2438 32.2575 83.1099 34.3436C83.9757 36.429 85.9374 37.9444 88.1954 37.9444L91.1971 37.9444C94.1119 37.9444 96.4749 40.3074 96.4749 43.2222V53.7778C96.4749 56.6926 94.1119 59.0555 91.1971 59.0555H88.1953C85.9374 59.0555 83.9758 60.5709 83.11 62.6562C82.2439 64.7424 82.5739 67.1713 84.1711 68.7685L86.2943 70.8916C88.3554 72.9527 88.3554 76.2944 86.2943 78.3555L78.8303 85.8194C76.7692 87.8805 73.4275 87.8805 71.3664 85.8194L69.2433 83.6963C67.6461 82.0991 65.2172 81.769 63.1311 82.6351C61.0458 83.5009 59.5304 85.4625 59.5304 87.7204V90.7222C59.5304 93.6371 57.1675 96 54.2526 96H43.6971C40.7822 96 38.4193 93.6371 38.4193 90.7222V87.7205C38.4193 85.4625 36.9039 83.5009 34.8185 82.6351C32.7323 81.7689 30.3033 82.099 28.7061 83.6963L26.5829 85.8194C24.5218 87.8805 21.1801 87.8805 19.119 85.8194L11.6551 78.3555C9.59402 76.2944 9.59401 72.9527 11.6551 70.8916L13.7786 68.7681C15.3757 67.171 15.7058 64.7422 14.8397 62.6561C13.9739 60.5709 12.0124 59.0556 9.75456 59.0556H6.75263C3.8378 59.0556 1.47485 56.6926 1.47485 53.7778V43.2222C1.47485 40.3074 3.83779 37.9444 6.75263 37.9444L9.75445 37.9444C12.0123 37.9444 13.974 36.4291 14.8397 34.3438C15.7058 32.2577 15.3758 29.8287 13.7786 28.2315L11.6552 26.1082C9.5941 24.0471 9.59411 20.7054 11.6552 18.6443L19.1191 11.1804C21.1802 9.11927 24.5219 9.11927 26.583 11.1804L28.7064 13.3037C30.3036 14.9009 32.7325 15.231 34.8186 14.3649C36.9039 13.4991 38.4193 11.5375 38.4193 9.27959V6.27778Z" stroke="#1B2431" stroke-width="1.5"/>
<path d="M59.5304 48.5C59.5304 54.3297 54.8045 59.0556 48.9749 59.0556C43.1452 59.0556 38.4193 54.3297 38.4193 48.5C38.4193 42.6703 43.1452 37.9444 48.9749 37.9444C54.8045 37.9444 59.5304 42.6703 59.5304 48.5Z" stroke="#1B2431" stroke-width="1.5"/>
</svg>
